  0
SECTION
  2
HEADER
  9
$ACADVER
  1
AC1024
  9
$ACADMAINTVER
 70
6
  9
$DWGCODEPAGE
  3
ANSI_1252
  9
$LASTSAVEDBY
  1
ezdxf
  9
$INSBASE
 10
0.0
 20
0.0
 30
0.0
  9
$EXTMIN
 10
1e+20
 20
1e+20
 30
1e+20
  9
$EXTMAX
 10
-1e+20
 20
-1e+20
 30
-1e+20
  9
$LIMMIN
 10
0.0
 20
0.0
  9
$LIMMAX
 10
420.0
 20
297.0
  9
$ORTHOMODE
 70
0
  9
$REGENMODE
 70
1
  9
$FILLMODE
 70
1
  9
$QTEXTMODE
 70
0
  9
$MIRRTEXT
 70
1
  9
$LTSCALE
 40
1.0
  9
$ATTMODE
 70
1
  9
$TEXTSIZE
 40
2.5
  9
$TRACEWID
 40
1.0
  9
$TEXTSTYLE
  7
Standard
  9
$CLAYER
  8
0
  9
$CELTYPE
  6
ByLayer
  9
$CECOLOR
 62
256
  9
$CELTSCALE
 40
1.0
  9
$DISPSILH
 70
0
  9
$DIMSCALE
 40
1.0
  9
$DIMASZ
 40
2.5
  9
$DIMEXO
 40
0.625
  9
$DIMDLI
 40
3.75
  9
$DIMRND
 40
0.0
  9
$DIMDLE
 40
0.0
  9
$DIMEXE
 40
1.25
  9
$DIMTP
 40
0.0
  9
$DIMTM
 40
0.0
  9
$DIMTXT
 40
2.5
  9
$DIMCEN
 40
2.5
  9
$DIMTSZ
 40
0.0
  9
$DIMTOL
 70
0
  9
$DIMLIM
 70
0
  9
$DIMTIH
 70
0
  9
$DIMTOH
 70
0
  9
$DIMSE1
 70
0
  9
$DIMSE2
 70
0
  9
$DIMTAD
 70
1
  9
$DIMZIN
 70
8
  9
$DIMBLK
  1

  9
$DIMASO
 70
1
  9
$DIMSHO
 70
1
  9
$DIMPOST
  1

  9
$DIMAPOST
  1

  9
$DIMALT
 70
0
  9
$DIMALTD
 70
3
  9
$DIMALTF
 40
0.03937007874
  9
$DIMLFAC
 40
1.0
  9
$DIMTOFL
 70
1
  9
$DIMTVP
 40
0.0
  9
$DIMTIX
 70
0
  9
$DIMSOXD
 70
0
  9
$DIMSAH
 70
0
  9
$DIMBLK1
  1

  9
$DIMBLK2
  1

  9
$DIMSTYLE
  2
ISO-25
  9
$DIMCLRD
 70
0
  9
$DIMCLRE
 70
0
  9
$DIMCLRT
 70
0
  9
$DIMTFAC
 40
1.0
  9
$DIMGAP
 40
0.625
  9
$DIMJUST
 70
0
  9
$DIMSD1
 70
0
  9
$DIMSD2
 70
0
  9
$DIMTOLJ
 70
0
  9
$DIMTZIN
 70
8
  9
$DIMALTZ
 70
0
  9
$DIMALTTZ
 70
0
  9
$DIMUPT
 70
0
  9
$DIMDEC
 70
2
  9
$DIMTDEC
 70
2
  9
$DIMALTU
 70
2
  9
$DIMALTTD
 70
3
  9
$DIMTXSTY
  7
Standard
  9
$DIMAUNIT
 70
0
  9
$DIMADEC
 70
0
  9
$DIMALTRND
 40
0.0
  9
$DIMAZIN
 70
0
  9
$DIMDSEP
 70
44
  9
$DIMATFIT
 70
3
  9
$DIMFRAC
 70
0
  9
$DIMLDRBLK
  1

  9
$DIMLUNIT
 70
2
  9
$DIMLWD
 70
-2
  9
$DIMLWE
 70
-2
  9
$DIMTMOVE
 70
0
  9
$DIMFXL
 40
1.0
  9
$DIMFXLON
 70
0
  9
$DIMJOGANG
 40
0.785398163397
  9
$DIMTFILL
 70
0
  9
$DIMTFILLCLR
 70
0
  9
$DIMARCSYM
 70
0
  9
$DIMLTYPE
  6

  9
$DIMLTEX1
  6

  9
$DIMLTEX2
  6

  9
$DIMTXTDIRECTION
 70
0
  9
$LUNITS
 70
2
  9
$LUPREC
 70
4
  9
$SKETCHINC
 40
1.0
  9
$FILLETRAD
 40
10.0
  9
$AUNITS
 70
0
  9
$AUPREC
 70
2
  9
$MENU
  1
.
  9
$ELEVATION
 40
0.0
  9
$PELEVATION
 40
0.0
  9
$THICKNESS
 40
0.0
  9
$LIMCHECK
 70
0
  9
$CHAMFERA
 40
0.0
  9
$CHAMFERB
 40
0.0
  9
$CHAMFERC
 40
0.0
  9
$CHAMFERD
 40
0.0
  9
$SKPOLY
 70
0
  9
$TDCREATE
 40
2459809.9492476853
  9
$TDUCREATE
 40
2458532.153996898
  9
$TDUPDATE
 40
2459809.9492476853
  9
$TDUUPDATE
 40
2458532.1544311
  9
$TDINDWG
 40
0.0
  9
$TDUSRTIMER
 40
0.0
  9
$USRTIMER
 70
1
  9
$ANGBASE
 50
0.0
  9
$ANGDIR
 70
0
  9
$PDMODE
 70
0
  9
$PDSIZE
 40
0.0
  9
$PLINEWID
 40
0.0
  9
$SPLFRAME
 70
0
  9
$SPLINETYPE
 70
6
  9
$SPLINESEGS
 70
8
  9
$HANDSEED
  5
F6
  9
$SURFTAB1
 70
6
  9
$SURFTAB2
 70
6
  9
$SURFTYPE
 70
6
  9
$SURFU
 70
6
  9
$SURFV
 70
6
  9
$UCSBASE
  2

  9
$UCSNAME
  2

  9
$UCSORG
 10
0.0
 20
0.0
 30
0.0
  9
$UCSXDIR
 10
1.0
 20
0.0
 30
0.0
  9
$UCSYDIR
 10
0.0
 20
1.0
 30
0.0
  9
$UCSORTHOREF
  2

  9
$UCSORTHOVIEW
 70
0
  9
$UCSORGTOP
 10
0.0
 20
0.0
 30
0.0
  9
$UCSORGBOTTOM
 10
0.0
 20
0.0
 30
0.0
  9
$UCSORGLEFT
 10
0.0
 20
0.0
 30
0.0
  9
$UCSORGRIGHT
 10
0.0
 20
0.0
 30
0.0
  9
$UCSORGFRONT
 10
0.0
 20
0.0
 30
0.0
  9
$UCSORGBACK
 10
0.0
 20
0.0
 30
0.0
  9
$PUCSBASE
  2

  9
$PUCSNAME
  2

  9
$PUCSORG
 10
0.0
 20
0.0
 30
0.0
  9
$PUCSXDIR
 10
1.0
 20
0.0
 30
0.0
  9
$PUCSYDIR
 10
0.0
 20
1.0
 30
0.0
  9
$PUCSORTHOREF
  2

  9
$PUCSORTHOVIEW
 70
0
  9
$PUCSORGTOP
 10
0.0
 20
0.0
 30
0.0
  9
$PUCSORGBOTTOM
 10
0.0
 20
0.0
 30
0.0
  9
$PUCSORGLEFT
 10
0.0
 20
0.0
 30
0.0
  9
$PUCSORGRIGHT
 10
0.0
 20
0.0
 30
0.0
  9
$PUCSORGFRONT
 10
0.0
 20
0.0
 30
0.0
  9
$PUCSORGBACK
 10
0.0
 20
0.0
 30
0.0
  9
$USERI1
 70
0
  9
$USERI2
 70
0
  9
$USERI3
 70
0
  9
$USERI4
 70
0
  9
$USERI5
 70
0
  9
$USERR1
 40
0.0
  9
$USERR2
 40
0.0
  9
$USERR3
 40
0.0
  9
$USERR4
 40
0.0
  9
$USERR5
 40
0.0
  9
$WORLDVIEW
 70
1
  9
$SHADEDGE
 70
3
  9
$SHADEDIF
 70
70
  9
$TILEMODE
 70
1
  9
$MAXACTVP
 70
64
  9
$PINSBASE
 10
0.0
 20
0.0
 30
0.0
  9
$PLIMCHECK
 70
0
  9
$PEXTMIN
 10
1e+20
 20
1e+20
 30
1e+20
  9
$PEXTMAX
 10
-1e+20
 20
-1e+20
 30
-1e+20
  9
$PLIMMIN
 10
0.0
 20
0.0
  9
$PLIMMAX
 10
420.0
 20
297.0
  9
$UNITMODE
 70
0
  9
$VISRETAIN
 70
1
  9
$PLINEGEN
 70
0
  9
$PSLTSCALE
 70
1
  9
$TREEDEPTH
 70
3020
  9
$CMLSTYLE
  2
Standard
  9
$CMLJUST
 70
0
  9
$CMLSCALE
 40
20.0
  9
$PROXYGRAPHICS
 70
1
  9
$MEASUREMENT
 70
1
  9
$CELWEIGHT
370
-1
  9
$ENDCAPS
280
0
  9
$JOINSTYLE
280
0
  9
$LWDISPLAY
290
0
  9
$INSUNITS
 70
4
  9
$HYPERLINKBASE
  1

  9
$STYLESHEET
  1

  9
$XEDIT
290
1
  9
$CEPSNTYPE
380
0
  9
$PSTYLEMODE
290
1
  9
$FINGERPRINTGUID
  2
{7DFC6E1B-6999-4559-8B40-78E81C0D5BE4}
  9
$VERSIONGUID
  2
{E1CE7057-B7C8-4FE9-A543-5530085E866B}
  9
$EXTNAMES
290
1
  9
$PSVPSCALE
 40
0.0
  9
$OLESTARTUP
290
0
  9
$SORTENTS
280
127
  9
$INDEXCTL
280
0
  9
$HIDETEXT
280
1
  9
$XCLIPFRAME
280
0
  9
$HALOGAP
280
0
  9
$OBSCOLOR
 70
257
  9
$OBSLTYPE
280
0
  9
$INTERSECTIONDISPLAY
280
0
  9
$INTERSECTIONCOLOR
 70
257
  9
$DIMASSOC
280
2
  9
$PROJECTNAME
  1

  9
$CAMERADISPLAY
290
0
  9
$LENSLENGTH
 40
50.0
  9
$CAMERAHEIGHT
 40
0.0
  9
$STEPSPERSEC
 40
24.0
  9
$STEPSIZE
 40
100.0
  9
$3DDWFPREC
 40
2.0
  9
$PSOLWIDTH
 40
0.005
  9
$PSOLHEIGHT
 40
0.08
  9
$LOFTANG1
 40
1.570796326795
  9
$LOFTANG2
 40
1.570796326795
  9
$LOFTMAG1
 40
0.0
  9
$LOFTMAG2
 40
0.0
  9
$LOFTPARAM
 70
7
  9
$LOFTNORMALS
280
1
  9
$LATITUDE
 40
37.795
  9
$LONGITUDE
 40
-122.394
  9
$NORTHDIRECTION
 40
0.0
  9
$TIMEZONE
 70
-8000
  9
$LIGHTGLYPHDISPLAY
280
1
  9
$TILEMODELIGHTSYNCH
280
1
  9
$CMATERIAL
347
20
  9
$SOLIDHIST
280
0
  9
$SHOWHIST
280
1
  9
$DWFFRAME
280
2
  9
$DGNFRAME
280
2
  9
$REALWORLDSCALE
290
1
  9
$INTERFERECOLOR
 62
256
  9
$CSHADOW
280
0
  9
$SHADOWPLANELOCATION
 40
0.0
  0
ENDSEC
  0
SECTION
  2
CLASSES
  0
CLASS
  1
ACDBDICTIONARYWDFLT
  2
AcDbDictionaryWithDefault
  3
ObjectDBX Classes
 90
0
 91
0
280
0
281
0
  0
CLASS
  1
SUN
  2
AcDbSun
  3
SCENEOE
 90
1153
 91
0
280
0
281
0
  0
CLASS
  1
VISUALSTYLE
  2
AcDbVisualStyle
  3
ObjectDBX Classes
 90
4095
 91
0
280
0
281
0
  0
CLASS
  1
MATERIAL
  2
AcDbMaterial
  3
ObjectDBX Classes
 90
1153
 91
0
280
0
281
0
  0
CLASS
  1
SCALE
  2
AcDbScale
  3
ObjectDBX Classes
 90
1153
 91
0
280
0
281
0
  0
CLASS
  1
TABLESTYLE
  2
AcDbTableStyle
  3
ObjectDBX Classes
 90
4095
 91
0
280
0
281
0
  0
CLASS
  1
MLEADERSTYLE
  2
AcDbMLeaderStyle
  3
ACDB_MLEADERSTYLE_CLASS
 90
4095
 91
0
280
0
281
0
  0
CLASS
  1
DICTIONARYVAR
  2
AcDbDictionaryVar
  3
ObjectDBX Classes
 90
0
 91
0
280
0
281
0
  0
CLASS
  1
CELLSTYLEMAP
  2
AcDbCellStyleMap
  3
ObjectDBX Classes
 90
1152
 91
0
280
0
281
0
  0
CLASS
  1
MENTALRAYRENDERSETTINGS
  2
AcDbMentalRayRenderSettings
  3
SCENEOE
 90
1024
 91
0
280
0
281
0
  0
CLASS
  1
ACDBDETAILVIEWSTYLE
  2
AcDbDetailViewStyle
  3
ObjectDBX Classes
 90
1025
 91
0
280
0
281
0
  0
CLASS
  1
ACDBSECTIONVIEWSTYLE
  2
AcDbSectionViewStyle
  3
ObjectDBX Classes
 90
1025
 91
0
280
0
281
0
  0
CLASS
  1
RASTERVARIABLES
  2
AcDbRasterVariables
  3
ISM
 90
0
 91
0
280
0
281
0
  0
CLASS
  1
ACDBPLACEHOLDER
  2
AcDbPlaceHolder
  3
ObjectDBX Classes
 90
0
 91
0
280
0
281
0
  0
CLASS
  1
LAYOUT
  2
AcDbLayout
  3
ObjectDBX Classes
 90
0
 91
0
280
0
281
0
  0
ENDSEC
  0
SECTION
  2
TABLES
  0
TABLE
  2
VPORT
  5
8
330
0
100
AcDbSymbolTable
 70
1
  0
VPORT
  5
23
330
8
100
AcDbSymbolTableRecord
100
AcDbViewportTableRecord
  2
*Active
 70
0
 10
0.0
 20
0.0
 11
1.0
 21
1.0
 12
200.0
 22
200.0
 13
0.0
 23
0.0
 14
0.5
 24
0.5
 15
0.5
 25
0.5
 16
0.0
 26
0.0
 36
1.0
 17
0.0
 27
0.0
 37
0.0
 40
1000.0
 41
1.34
 42
50.0
 43
0.0
 44
0.0
 50
0.0
 51
0.0
 71
0
 72
1000
 73
1
 74
3
 75
0
 76
1
 77
0
 78
0
281
0
 65
0
146
0.0
  0
ENDTAB
  0
TABLE
  2
LTYPE
  5
2
330
0
100
AcDbSymbolTable
 70
3
  0
LTYPE
  5
24
330
2
100
AcDbSymbolTableRecord
100
AcDbLinetypeTableRecord
  2
ByBlock
 70
0
  3

 72
65
 73
0
 40
0.0
  0
LTYPE
  5
25
330
2
100
AcDbSymbolTableRecord
100
AcDbLinetypeTableRecord
  2
ByLayer
 70
0
  3

 72
65
 73
0
 40
0.0
  0
LTYPE
  5
26
330
2
100
AcDbSymbolTableRecord
100
AcDbLinetypeTableRecord
  2
Continuous
 70
0
  3

 72
65
 73
0
 40
0.0
  0
ENDTAB
  0
TABLE
  2
LAYER
  5
1
330
0
100
AcDbSymbolTable
 70
2
  0
LAYER
  5
27
330
1
100
AcDbSymbolTableRecord
100
AcDbLayerTableRecord
  2
0
 70
0
 62
7
  6
Continuous
370
-3
390
13
347
21
  0
LAYER
  5
28
330
1
100
AcDbSymbolTableRecord
100
AcDbLayerTableRecord
  2
Defpoints
 70
0
 62
7
  6
Continuous
290
0
370
-3
390
13
347
21
  0
ENDTAB
  0
TABLE
  2
STYLE
  5
5
330
0
100
AcDbSymbolTable
 70
1
  0
STYLE
  5
29
330
5
100
AcDbSymbolTableRecord
100
AcDbTextStyleTableRecord
  2
Standard
 70
0
 40
0.0
 41
1.0
 50
0.0
 71
0
 42
2.5
  3
txt
  4

  0
ENDTAB
  0
TABLE
  2
VIEW
  5
7
330
0
100
AcDbSymbolTable
 70
0
  0
ENDTAB
  0
TABLE
  2
UCS
  5
6
330
0
100
AcDbSymbolTable
 70
0
  0
ENDTAB
  0
TABLE
  2
APPID
  5
3
330
0
100
AcDbSymbolTable
 70
3
  0
APPID
  5
2A
330
3
100
AcDbSymbolTableRecord
100
AcDbRegAppTableRecord
  2
ACAD
 70
0
  0
APPID
  5
F3
330
3
100
AcDbSymbolTableRecord
100
AcDbRegAppTableRecord
  2
HATCHBACKGROUNDCOLOR
 70
0
  0
APPID
  5
F4
330
3
100
AcDbSymbolTableRecord
100
AcDbRegAppTableRecord
  2
EZDXF
 70
0
  0
ENDTAB
  0
TABLE
  2
DIMSTYLE
  5
4
330
0
100
AcDbSymbolTable
 70
1
100
AcDbDimStyleTable
  0
DIMSTYLE
105
2B
330
4
100
AcDbSymbolTableRecord
100
AcDbDimStyleTableRecord
  2
Standard
 70
0
 40
1.0
 41
2.5
 42
0.625
 43
3.75
 44
1.25
 45
0.0
 46
0.0
 47
0.0
 48
0.0
 49
2.5
140
2.5
141
2.5
142
0.0
143
0.03937007874
144
1.0
145
0.0
146
1.0
147
0.625
148
0.0
 69
0
 70
0
 71
0
 72
0
 73
0
 74
0
 75
0
 76
0
 77
1
 78
8
 79
3
170
0
171
3
172
1
173
0
174
0
175
0
176
0
177
0
178
0
179
2
271
2
272
2
273
2
274
3
275
0
276
0
277
2
278
44
279
0
280
0
281
0
282
0
283
0
284
8
285
0
286
0
288
0
289
3
290
0
371
-2
372
-2
  0
ENDTAB
  0
TABLE
  2
BLOCK_RECORD
  5
9
330
0
100
AcDbSymbolTable
 70
2
  0
BLOCK_RECORD
  5
17
330
9
100
AcDbSymbolTableRecord
100
AcDbBlockTableRecord
  2
*Model_Space
340
1A
 70
0
280
1
281
0
  0
BLOCK_RECORD
  5
1B
330
9
100
AcDbSymbolTableRecord
100
AcDbBlockTableRecord
  2
*Paper_Space
340
1E
 70
0
280
1
281
0
  0
ENDTAB
  0
ENDSEC
  0
SECTION
  2
BLOCKS
  0
BLOCK
  5
18
330
17
100
AcDbEntity
  8
0
100
AcDbBlockBegin
  2
*Model_Space
 70
0
 10
0.0
 20
0.0
 30
0.0
  3
*Model_Space
  1

  0
ENDBLK
  5
19
330
17
100
AcDbEntity
  8
0
100
AcDbBlockEnd
  0
BLOCK
  5
1C
330
1B
100
AcDbEntity
  8
0
100
AcDbBlockBegin
  2
*Paper_Space
 70
0
 10
0.0
 20
0.0
 30
0.0
  3
*Paper_Space
  1

  0
ENDBLK
  5
1D
330
1B
100
AcDbEntity
  8
0
100
AcDbBlockEnd
  0
ENDSEC
  0
SECTION
  2
ENTITIES
  0
LINE
  5
2F
330
17
100
AcDbEntity
  8
0
100
AcDbLine
 10
0.0
 20
49.06658516151052
 30
0.0
 11
5.329070518200751e-15
 21
3.432168325091979
 31
0.0
  0
LINE
  5
30
330
17
100
AcDbEntity
  8
0
100
AcDbLine
 10
5.329070518200751e-15
 20
3.432168325091979
 30
0.0
 11
0.14061024795535637
 21
2.0005003459102255
 31
0.0
  0
LINE
  5
31
330
17
100
AcDbEntity
  8
0
100
AcDbLine
 10
0.14061024795535637
 20
2.0005003459102255
 30
0.0
 11
0.7350081143120679
 21
1.0354027349439434
 31
0.0
  0
LINE
  5
32
330
17
100
AcDbEntity
  8
0
100
AcDbLine
 10
0.7350081143120679
 20
1.0354027349439434
 30
0.0
 11
2.026065845538474
 21
0.43461349368017466
 31
0.0
  0
LINE
  5
33
330
17
100
AcDbEntity
  8
0
100
AcDbLine
 10
2.026065845538474
 20
0.43461349368017466
 30
0.0
 11
3.8539990689580375
 21
0.2940032457248236
 31
0.0
  0
LINE
  5
34
330
17
100
AcDbEntity
  8
0
100
AcDbLine
 10
3.8539990689580375
 20
0.2940032457248236
 30
0.0
 11
12.469572443676837
 21
0.38348249442368854
 31
0.0
  0
LINE
  5
35
330
17
100
AcDbEntity
  8
0
100
AcDbLine
 10
12.469572443676837
 20
0.38348249442368854
 30
0.0
 11
14.380593540888201
 21
0.23648087156126962
 31
0.0
  0
LINE
  5
36
330
17
100
AcDbEntity
  8
0
100
AcDbLine
 10
14.380593540888201
 20
0.23648087156126962
 30
0.0
 11
33.1840185174629
 21
0.21091537193304077
 31
0.0
  0
LINE
  5
37
330
17
100
AcDbEntity
  8
0
100
AcDbLine
 10
33.1840185174629
 20
0.21091537193304077
 30
0.0
 11
44.618188226195784
 21
0.0
 31
0.0
  0
LINE
  5
38
330
17
100
AcDbEntity
  8
0
100
AcDbLine
 10
44.618188226195784
 20
0.0
 30
0.0
 11
49.3861539068636
 21
0.05113099925650033
 31
0.0
  0
LINE
  5
39
330
17
100
AcDbEntity
  8
0
100
AcDbLine
 10
49.3861539068636
 20
0.05113099925650033
 30
0.0
 11
50.159510270618036
 21
0.32596012026013454
 31
0.0
  0
LINE
  5
3A
330
17
100
AcDbEntity
  8
0
100
AcDbLine
 10
50.159510270618036
 20
0.32596012026013454
 30
0.0
 11
50.96482350890777
 21
1.016228610222754
 31
0.0
  0
LINE
  5
3B
330
17
100
AcDbEntity
  8
0
100
AcDbLine
 10
50.96482350890777
 20
1.016228610222754
 30
0.0
 11
51.456959376751506
 21
1.9813262211890361
 31
0.0
  0
LINE
  5
3C
330
17
100
AcDbEntity
  8
0
100
AcDbLine
 10
51.456959376751506
 20
1.9813262211890361
 30
0.0
 11
51.648700623963336
 21
3.3874287007425465
 31
0.0
  0
LINE
  5
3D
330
17
100
AcDbEntity
  8
0
100
AcDbLine
 10
51.648700623963336
 20
3.3874287007425465
 30
0.0
 11
51.59117824979979
 21
47.18752093883447
 31
0.0
  0
LINE
  5
3E
330
17
100
AcDbEntity
  8
0
100
AcDbLine
 10
51.59117824979979
 20
47.18752093883447
 30
0.0
 11
51.514481750915046
 21
49.45006765593421
 31
0.0
  0
LINE
  5
3F
330
17
100
AcDbEntity
  8
0
100
AcDbLine
 10
51.514481750915046
 20
49.45006765593421
 30
0.0
 11
51.17573888084079
 21
50.479079015971095
 31
0.0
  0
LINE
  5
40
330
17
100
AcDbEntity
  8
0
100
AcDbLine
 10
51.17573888084079
 20
50.479079015971095
 30
0.0
 11
50.721951262439426
 21
51.09904238195605
 31
0.0
  0
LINE
  5
41
330
17
100
AcDbEntity
  8
0
100
AcDbLine
 10
50.721951262439426
 20
51.09904238195605
 30
0.0
 11
49.84633290017202
 21
51.667874748684525
 31
0.0
  0
LINE
  5
42
330
17
100
AcDbEntity
  8
0
100
AcDbLine
 10
49.84633290017202
 20
51.667874748684525
 30
0.0
 11
47.941703177867716
 21
51.897964245338734
 31
0.0
  0
LINE
  5
43
330
17
100
AcDbEntity
  8
0
100
AcDbLine
 10
47.941703177867716
 20
51.897964245338734
 30
0.0
 11
3.24042707788014
 21
52.07692274273645
 31
0.0
  0
LINE
  5
44
330
17
100
AcDbEntity
  8
0
100
AcDbLine
 10
3.24042707788014
 20
52.07692274273645
 30
0.0
 11
1.8790642226760585
 21
51.76374537229044
 31
0.0
  0
LINE
  5
45
330
17
100
AcDbEntity
  8
0
100
AcDbLine
 10
1.8790642226760585
 20
51.76374537229044
 30
0.0
 11
0.8180959881038614
 21
51.00956313325719
 31
0.0
  0
LINE
  5
46
330
17
100
AcDbEntity
  8
0
100
AcDbLine
 10
0.8180959881038614
 20
51.00956313325719
 30
0.0
 11
0.3451342449813186
 21
50.29372914366631
 31
0.0
  0
LINE
  5
47
330
17
100
AcDbEntity
  8
0
100
AcDbLine
 10
0.3451342449813186
 20
50.29372914366631
 30
0.0
 11
0.0
 21
49.06658516151052
 31
0.0
  0
LINE
  5
48
330
17
100
AcDbEntity
  8
0
100
AcDbLine
 10
47.014953816343805
 20
48.54249241913149
 30
0.0
 11
47.027736566157934
 21
47.62213443251464
 31
0.0
  0
LINE
  5
49
330
17
100
AcDbEntity
  8
0
100
AcDbLine
 10
47.027736566157934
 20
47.62213443251464
 30
0.0
 11
47.647699932142885
 21
46.98938831671556
 31
0.0
  0
LINE
  5
4A
330
17
100
AcDbEntity
  8
0
100
AcDbLine
 10
47.647699932142885
 20
46.98938831671556
 30
0.0
 11
49.22636953418706
 21
46.8679521934814
 31
0.0
  0
LINE
  5
4B
330
17
100
AcDbEntity
  8
0
100
AcDbLine
 10
49.22636953418706
 20
46.8679521934814
 30
0.0
 11
49.85272427507908
 21
47.404827685674555
 31
0.0
  0
LINE
  5
4C
330
17
100
AcDbEntity
  8
0
100
AcDbLine
 10
49.85272427507908
 20
47.404827685674555
 30
0.0
 11
49.94220352377794
 21
48.568057918759735
 31
0.0
  0
LINE
  5
4D
330
17
100
AcDbEntity
  8
0
100
AcDbLine
 10
49.94220352377794
 20
48.568057918759735
 30
0.0
 11
49.1688471600235
 21
49.37976253195653
 31
0.0
  0
LINE
  5
4E
330
17
100
AcDbEntity
  8
0
100
AcDbLine
 10
49.1688471600235
 20
49.37976253195653
 30
0.0
 11
48.34435979701258
 21
49.52676415481895
 31
0.0
  0
LINE
  5
4F
330
17
100
AcDbEntity
  8
0
100
AcDbLine
 10
48.34435979701258
 20
49.52676415481895
 30
0.0
 11
47.83304980444767
 21
49.39893665667772
 31
0.0
  0
LINE
  5
50
330
17
100
AcDbEntity
  8
0
100
AcDbLine
 10
47.83304980444767
 20
49.39893665667772
 30
0.0
 11
47.398436310767494
 21
49.181629909837625
 31
0.0
  0
LINE
  5
51
330
17
100
AcDbEntity
  8
0
100
AcDbLine
 10
47.398436310767494
 20
49.181629909837625
 30
0.0
 11
47.014953816343805
 21
48.54249241913149
 31
0.0
  0
LINE
  5
52
330
17
100
AcDbEntity
  8
0
100
AcDbLine
 10
1.8215418485125063
 20
48.84288703976337
 30
0.0
 11
1.8407159732336886
 21
48.00561692693833
 31
0.0
  0
LINE
  5
53
330
17
100
AcDbEntity
  8
0
100
AcDbLine
 10
1.8407159732336886
 20
48.00561692693833
 30
0.0
 11
2.377591465426848
 21
47.379262186046304
 31
0.0
  0
LINE
  5
54
330
17
100
AcDbEntity
  8
0
100
AcDbLine
 10
2.377591465426848
 20
47.379262186046304
 30
0.0
 11
3.949869692563958
 21
47.17473818902034
 31
0.0
  0
LINE
  5
55
330
17
100
AcDbEntity
  8
0
100
AcDbLine
 10
3.949869692563958
 20
47.17473818902034
 30
0.0
 11
4.3780918113370735
 21
47.30895706206863
 31
0.0
  0
LINE
  5
56
330
17
100
AcDbEntity
  8
0
100
AcDbLine
 10
4.3780918113370735
 20
47.30895706206863
 30
0.0
 11
4.748791555946633
 21
47.78191880519118
 31
0.0
  0
LINE
  5
57
330
17
100
AcDbEntity
  8
0
100
AcDbLine
 10
4.748791555946633
 20
47.78191880519118
 30
0.0
 11
4.755182930853696
 21
48.95154041318341
 31
0.0
  0
LINE
  5
58
330
17
100
AcDbEntity
  8
0
100
AcDbLine
 10
4.755182930853696
 20
48.95154041318341
 30
0.0
 11
3.8987386933074664
 21
49.76963640128727
 31
0.0
  0
LINE
  5
59
330
17
100
AcDbEntity
  8
0
100
AcDbLine
 10
3.8987386933074664
 20
49.76963640128727
 30
0.0
 11
2.9847720815976846
 21
49.83994152526495
 31
0.0
  0
LINE
  5
5A
330
17
100
AcDbEntity
  8
0
100
AcDbLine
 10
2.9847720815976846
 20
49.83994152526495
 30
0.0
 11
2.294503591635051
 21
49.558721029354246
 31
0.0
  0
LINE
  5
5B
330
17
100
AcDbEntity
  8
0
100
AcDbLine
 10
2.294503591635051
 20
49.558721029354246
 30
0.0
 11
1.8215418485125063
 21
48.84288703976337
 31
0.0
  0
LINE
  5
5C
330
17
100
AcDbEntity
  8
0
100
AcDbLine
 10
39.32612980314892
 20
40.94314765463545
 30
0.0
 11
39.5114796754537
 21
40.09309479199629
 31
0.0
  0
LINE
  5
5D
330
17
100
AcDbEntity
  8
0
100
AcDbLine
 10
39.5114796754537
 20
40.09309479199629
 30
0.0
 11
39.90135354478445
 21
39.72878642229379
 31
0.0
  0
LINE
  5
5E
330
17
100
AcDbEntity
  8
0
100
AcDbLine
 10
39.90135354478445
 20
39.72878642229379
 30
0.0
 11
40.553273785304704
 21
39.5114796754537
 31
0.0
  0
LINE
  5
5F
330
17
100
AcDbEntity
  8
0
100
AcDbLine
 10
40.553273785304704
 20
39.5114796754537
 30
0.0
 11
41.901853890694674
 21
39.65848129831611
 31
0.0
  0
LINE
  5
60
330
17
100
AcDbEntity
  8
0
100
AcDbLine
 10
41.901853890694674
 20
39.65848129831611
 30
0.0
 11
42.37481563381722
 21
40.374315287906995
 31
0.0
  0
LINE
  5
61
330
17
100
AcDbEntity
  8
0
100
AcDbLine
 10
42.37481563381722
 20
40.374315287906995
 30
0.0
 11
42.278945010211295
 21
41.3010646494309
 31
0.0
  0
LINE
  5
62
330
17
100
AcDbEntity
  8
0
100
AcDbLine
 10
42.278945010211295
 20
41.3010646494309
 30
0.0
 11
41.81876601690287
 21
41.83794014162405
 31
0.0
  0
LINE
  5
63
330
17
100
AcDbEntity
  8
0
100
AcDbLine
 10
41.81876601690287
 20
41.83794014162405
 30
0.0
 11
41.256325025081466
 21
42.13194338734888
 31
0.0
  0
LINE
  5
64
330
17
100
AcDbEntity
  8
0
100
AcDbLine
 10
41.256325025081466
 20
42.13194338734888
 30
0.0
 11
40.41905491225642
 21
42.112769262627694
 31
0.0
  0
LINE
  5
65
330
17
100
AcDbEntity
  8
0
100
AcDbLine
 10
40.41905491225642
 20
42.112769262627694
 30
0.0
 11
39.81187429608559
 21
41.82515739180994
 31
0.0
  0
LINE
  5
66
330
17
100
AcDbEntity
  8
0
100
AcDbLine
 10
39.81187429608559
 20
41.82515739180994
 30
0.0
 11
39.32612980314892
 21
40.94314765463545
 31
0.0
  0
LINE
  5
67
330
17
100
AcDbEntity
  8
0
100
AcDbLine
 10
14.009893796278638
 20
43.22486849645638
 30
0.0
 11
14.003502421371573
 21
36.622578217461935
 31
0.0
  0
LINE
  5
68
330
17
100
AcDbEntity
  8
0
100
AcDbLine
 10
14.003502421371573
 20
36.622578217461935
 30
0.0
 11
14.105764419884553
 21
35.77891672972982
 31
0.0
  0
LINE
  5
69
330
17
100
AcDbEntity
  8
0
100
AcDbLine
 10
14.105764419884553
 20
35.77891672972982
 30
0.0
 11
14.48285553940118
 21
35.24843261244373
 31
0.0
  0
LINE
  5
6A
330
17
100
AcDbEntity
  8
0
100
AcDbLine
 10
14.48285553940118
 20
35.24843261244373
 30
0.0
 11
15.6396943975793
 21
35.075865489953074
 31
0.0
  0
LINE
  5
6B
330
17
100
AcDbEntity
  8
0
100
AcDbLine
 10
15.6396943975793
 20
35.075865489953074
 30
0.0
 11
24.408660770067563
 21
34.98638624125421
 31
0.0
  0
LINE
  5
6C
330
17
100
AcDbEntity
  8
0
100
AcDbLine
 10
24.408660770067563
 20
34.98638624125421
 30
0.0
 11
24.798534639398312
 21
34.62207787155171
 31
0.0
  0
LINE
  5
6D
330
17
100
AcDbEntity
  8
0
100
AcDbLine
 10
24.798534639398312
 20
34.62207787155171
 30
0.0
 11
24.932753512446602
 21
33.10732201857816
 31
0.0
  0
LINE
  5
6E
330
17
100
AcDbEntity
  8
0
100
AcDbLine
 10
24.932753512446602
 20
33.10732201857816
 30
0.0
 11
25.450454879918574
 21
32.231703656310735
 31
0.0
  0
LINE
  5
6F
330
17
100
AcDbEntity
  8
0
100
AcDbLine
 10
25.450454879918574
 20
32.231703656310735
 30
0.0
 11
34.46868487378224
 21
32.1230502828907
 31
0.0
  0
LINE
  5
70
330
17
100
AcDbEntity
  8
0
100
AcDbLine
 10
34.46868487378224
 20
32.1230502828907
 30
0.0
 11
35.983440726755795
 21
32.25726915593899
 31
0.0
  0
LINE
  5
71
330
17
100
AcDbEntity
  8
0
100
AcDbLine
 10
35.983440726755795
 20
32.25726915593899
 30
0.0
 11
36.251878472852376
 21
32.4873586525932
 31
0.0
  0
LINE
  5
72
330
17
100
AcDbEntity
  8
0
100
AcDbLine
 10
36.251878472852376
 20
32.4873586525932
 30
0.0
 11
36.20074747359588
 21
33.9957231306597
 31
0.0
  0
LINE
  5
73
330
17
100
AcDbEntity
  8
0
100
AcDbLine
 10
36.20074747359588
 20
33.9957231306597
 30
0.0
 11
35.83004772898633
 21
34.60929512173759
 31
0.0
  0
LINE
  5
74
330
17
100
AcDbEntity
  8
0
100
AcDbLine
 10
35.83004772898633
 20
34.60929512173759
 30
0.0
 11
30.506032431404165
 21
34.93525524199772
 31
0.0
  0
LINE
  5
75
330
17
100
AcDbEntity
  8
0
100
AcDbLine
 10
30.506032431404165
 20
34.93525524199772
 30
0.0
 11
30.371813558355875
 21
35.36347736077084
 31
0.0
  0
LINE
  5
76
330
17
100
AcDbEntity
  8
0
100
AcDbLine
 10
30.371813558355875
 20
35.36347736077084
 30
0.0
 11
30.4165531827053
 21
39.20469367991475
 31
0.0
  0
LINE
  5
77
330
17
100
AcDbEntity
  8
0
100
AcDbLine
 10
30.4165531827053
 20
39.20469367991475
 30
0.0
 11
30.218420560586402
 21
43.148171997571644
 31
0.0
  0
LINE
  5
78
330
17
100
AcDbEntity
  8
0
100
AcDbLine
 10
30.218420560586402
 20
43.148171997571644
 30
0.0
 11
29.92441731486157
 21
43.672264739950684
 31
0.0
  0
LINE
  5
79
330
17
100
AcDbEntity
  8
0
100
AcDbLine
 10
29.92441731486157
 20
43.672264739950684
 30
0.0
 11
16.06152514144535
 21
43.819266362813096
 31
0.0
  0
LINE
  5
7A
330
17
100
AcDbEntity
  8
0
100
AcDbLine
 10
16.06152514144535
 20
43.819266362813096
 30
0.0
 11
14.546769288471795
 21
43.685047489764806
 31
0.0
  0
LINE
  5
7B
330
17
100
AcDbEntity
  8
0
100
AcDbLine
 10
14.546769288471795
 20
43.685047489764806
 30
0.0
 11
14.009893796278638
 21
43.22486849645638
 31
0.0
  0
LINE
  5
7C
330
17
100
AcDbEntity
  8
0
100
AcDbLine
 10
9.254710865424935
 20
41.16684577638261
 30
0.0
 11
9.433669362822654
 21
40.23370503995164
 31
0.0
  0
LINE
  5
7D
330
17
100
AcDbEntity
  8
0
100
AcDbLine
 10
9.433669362822654
 20
40.23370503995164
 30
0.0
 11
10.315679099997132
 21
39.74796054701497
 31
0.0
  0
LINE
  5
7E
330
17
100
AcDbEntity
  8
0
100
AcDbLine
 10
10.315679099997132
 20
39.74796054701497
 30
0.0
 11
11.568388581781173
 21
39.73517779720085
 31
0.0
  0
LINE
  5
7F
330
17
100
AcDbEntity
  8
0
100
AcDbLine
 10
11.568388581781173
 20
39.73517779720085
 30
0.0
 11
12.188351947766131
 21
40.18896541560221
 31
0.0
  0
LINE
  5
80
330
17
100
AcDbEntity
  8
0
100
AcDbLine
 10
12.188351947766131
 20
40.18896541560221
 30
0.0
 11
12.297005321186179
 21
40.51492553586234
 31
0.0
  0
LINE
  5
81
330
17
100
AcDbEntity
  8
0
100
AcDbLine
 10
12.297005321186179
 20
40.51492553586234
 30
0.0
 11
12.277831196464989
 21
41.352195648687385
 31
0.0
  0
LINE
  5
82
330
17
100
AcDbEntity
  8
0
100
AcDbLine
 10
12.277831196464989
 20
41.352195648687385
 30
0.0
 11
11.747347079178892
 21
42.06163826337121
 31
0.0
  0
LINE
  5
83
330
17
100
AcDbEntity
  8
0
100
AcDbLine
 10
11.747347079178892
 20
42.06163826337121
 30
0.0
 11
11.344690460034021
 21
42.25977088549011
 31
0.0
  0
LINE
  5
84
330
17
100
AcDbEntity
  8
0
100
AcDbLine
 10
11.344690460034021
 20
42.25977088549011
 30
0.0
 11
10.43072384832424
 21
42.33007600946779
 31
0.0
  0
LINE
  5
85
330
17
100
AcDbEntity
  8
0
100
AcDbLine
 10
10.43072384832424
 20
42.33007600946779
 30
0.0
 11
9.740455358361606
 21
42.04885551355708
 31
0.0
  0
LINE
  5
86
330
17
100
AcDbEntity
  8
0
100
AcDbLine
 10
9.740455358361606
 20
42.04885551355708
 30
0.0
 11
9.254710865424935
 21
41.16684577638261
 31
0.0
  0
LINE
  5
87
330
17
100
AcDbEntity
  8
0
100
AcDbLine
 10
39.837439795713834
 20
35.63830648177448
 30
0.0
 11
39.79909154627146
 21
32.96671177062281
 31
0.0
  0
LINE
  5
88
330
17
100
AcDbEntity
  8
0
100
AcDbLine
 10
39.79909154627146
 20
32.96671177062281
 30
0.0
 11
40.06752929236804
 21
31.02373379887613
 31
0.0
  0
LINE
  5
89
330
17
100
AcDbEntity
  8
0
100
AcDbLine
 10
40.06752929236804
 20
31.02373379887613
 30
0.0
 11
40.79614603177305
 21
30.716947803337177
 31
0.0
  0
LINE
  5
8A
330
17
100
AcDbEntity
  8
0
100
AcDbLine
 10
40.79614603177305
 20
30.716947803337177
 30
0.0
 11
43.64030786541537
 21
30.74890467787249
 31
0.0
  0
LINE
  5
8B
330
17
100
AcDbEntity
  8
0
100
AcDbLine
 10
43.64030786541537
 20
30.74890467787249
 30
0.0
 11
43.908745611511954
 21
30.978994174526697
 31
0.0
  0
LINE
  5
8C
330
17
100
AcDbEntity
  8
0
100
AcDbLine
 10
43.908745611511954
 20
30.978994174526697
 30
0.0
 11
44.03657310965318
 21
32.640751650362674
 31
0.0
  0
LINE
  5
8D
330
17
100
AcDbEntity
  8
0
100
AcDbLine
 10
44.03657310965318
 20
32.640751650362674
 30
0.0
 11
43.86400598716253
 21
35.83004772898632
 31
0.0
  0
LINE
  5
8E
330
17
100
AcDbEntity
  8
0
100
AcDbLine
 10
43.86400598716253
 20
35.83004772898632
 30
0.0
 11
43.21847712154933
 21
36.13044234961821
 31
0.0
  0
LINE
  5
8F
330
17
100
AcDbEntity
  8
0
100
AcDbLine
 10
43.21847712154933
 20
36.13044234961821
 30
0.0
 11
41.633416144598094
 21
36.16879059906058
 31
0.0
  0
LINE
  5
90
330
17
100
AcDbEntity
  8
0
100
AcDbLine
 10
41.633416144598094
 20
36.16879059906058
 30
0.0
 11
40.367923912999935
 21
36.015397601291106
 31
0.0
  0
LINE
  5
91
330
17
100
AcDbEntity
  8
0
100
AcDbLine
 10
40.367923912999935
 20
36.015397601291106
 30
0.0
 11
39.837439795713834
 21
35.63830648177448
 31
0.0
  0
LINE
  5
92
330
17
100
AcDbEntity
  8
0
100
AcDbLine
 10
39.607350299059625
 20
28.301008088467967
 30
0.0
 11
39.63291579868787
 21
25.373758381033838
 31
0.0
  0
LINE
  5
93
330
17
100
AcDbEntity
  8
0
100
AcDbLine
 10
39.63291579868787
 20
25.373758381033838
 30
0.0
 11
39.97805004366919
 21
23.34130116058831
 31
0.0
  0
LINE
  5
94
330
17
100
AcDbEntity
  8
0
100
AcDbLine
 10
39.97805004366919
 20
23.34130116058831
 30
0.0
 11
42.13194338734888
 21
23.092037539212903
 31
0.0
  0
LINE
  5
95
330
17
100
AcDbEntity
  8
0
100
AcDbLine
 10
42.13194338734888
 20
23.092037539212903
 30
0.0
 11
43.736178489021306
 21
23.302952911145937
 31
0.0
  0
LINE
  5
96
330
17
100
AcDbEntity
  8
0
100
AcDbLine
 10
43.736178489021306
 20
23.302952911145937
 30
0.0
 11
44.07492135909556
 21
25.53354275371038
 31
0.0
  0
LINE
  5
97
330
17
100
AcDbEntity
  8
0
100
AcDbLine
 10
44.07492135909556
 20
25.53354275371038
 30
0.0
 11
43.870397362069596
 21
28.307399463375027
 31
0.0
  0
LINE
  5
98
330
17
100
AcDbEntity
  8
0
100
AcDbLine
 10
43.870397362069596
 20
28.307399463375027
 30
0.0
 11
43.55721999162358
 21
28.58222858437867
 31
0.0
  0
LINE
  5
99
330
17
100
AcDbEntity
  8
0
100
AcDbLine
 10
43.55721999162358
 20
28.58222858437867
 30
0.0
 11
40.975104529170764
 21
28.69727333270577
 31
0.0
  0
LINE
  5
9A
330
17
100
AcDbEntity
  8
0
100
AcDbLine
 10
40.975104529170764
 20
28.69727333270577
 30
0.0
 11
40.04835516764686
 21
28.60140270909985
 31
0.0
  0
LINE
  5
9B
330
17
100
AcDbEntity
  8
0
100
AcDbLine
 10
40.04835516764686
 20
28.60140270909985
 30
0.0
 11
39.607350299059625
 21
28.301008088467967
 31
0.0
  0
LINE
  5
9C
330
17
100
AcDbEntity
  8
0
100
AcDbLine
 10
7.803868761521995
 20
28.825100830847
 30
0.0
 11
7.6121275143101546
 21
23.07286341449172
 31
0.0
  0
LINE
  5
9D
330
17
100
AcDbEntity
  8
0
100
AcDbLine
 10
7.6121275143101546
 20
23.07286341449172
 30
0.0
 11
7.797477386614938
 21
16.790141880850342
 31
0.0
  0
LINE
  5
9E
330
17
100
AcDbEntity
  8
0
100
AcDbLine
 10
7.797477386614938
 20
16.790141880850342
 30
0.0
 11
8.276830504644542
 21
16.502530010032586
 31
0.0
  0
LINE
  5
9F
330
17
100
AcDbEntity
  8
0
100
AcDbLine
 10
8.276830504644542
 20
16.502530010032586
 30
0.0
 11
10.852554592190293
 21
16.30439738791368
 31
0.0
  0
LINE
  5
A0
330
17
100
AcDbEntity
  8
0
100
AcDbLine
 10
10.852554592190293
 20
16.30439738791368
 30
0.0
 11
13.536932053156091
 21
16.43222488605491
 31
0.0
  0
LINE
  5
A1
330
17
100
AcDbEntity
  8
0
100
AcDbLine
 10
13.536932053156091
 20
16.43222488605491
 30
0.0
 11
13.805369799252672
 21
16.66231438270912
 31
0.0
  0
LINE
  5
A2
330
17
100
AcDbEntity
  8
0
100
AcDbLine
 10
13.805369799252672
 20
16.66231438270912
 30
0.0
 11
14.041850670813945
 21
20.823099447206104
 31
0.0
  0
LINE
  5
A3
330
17
100
AcDbEntity
  8
0
100
AcDbLine
 10
14.041850670813945
 20
20.823099447206104
 30
0.0
 11
14.02906792099982
 21
26.089592370624715
 31
0.0
  0
LINE
  5
A4
330
17
100
AcDbEntity
  8
0
100
AcDbLine
 10
14.02906792099982
 20
26.089592370624715
 30
0.0
 11
13.664759551297317
 21
28.959319703895297
 31
0.0
  0
LINE
  5
A5
330
17
100
AcDbEntity
  8
0
100
AcDbLine
 10
13.664759551297317
 20
28.959319703895297
 30
0.0
 11
13.274885681966571
 21
29.32362807359779
 31
0.0
  0
LINE
  5
A6
330
17
100
AcDbEntity
  8
0
100
AcDbLine
 10
13.274885681966571
 20
29.32362807359779
 30
0.0
 11
10.858945967097354
 21
29.425890072110775
 31
0.0
  0
LINE
  5
A7
330
17
100
AcDbEntity
  8
0
100
AcDbLine
 10
10.858945967097354
 20
29.425890072110775
 30
0.0
 11
8.596399249997612
 21
29.349193573226046
 31
0.0
  0
LINE
  5
A8
330
17
100
AcDbEntity
  8
0
100
AcDbLine
 10
8.596399249997612
 20
29.349193573226046
 30
0.0
 11
7.9956100087338395
 21
29.144669576200073
 31
0.0
  0
LINE
  5
A9
330
17
100
AcDbEntity
  8
0
100
AcDbLine
 10
7.9956100087338395
 20
29.144669576200073
 30
0.0
 11
7.803868761521995
 21
28.825100830847
 31
0.0
  0
LINE
  5
AA
330
17
100
AcDbEntity
  8
0
100
AcDbLine
 10
30.013896563560436
 20
24.191354023227476
 30
0.0
 11
29.8860690654192
 21
21.44306281319107
 31
0.0
  0
LINE
  5
AB
330
17
100
AcDbEntity
  8
0
100
AcDbLine
 10
29.8860690654192
 20
21.44306281319107
 30
0.0
 11
30.250377435121706
 21
20.746402948321368
 31
0.0
  0
LINE
  5
AC
330
17
100
AcDbEntity
  8
0
100
AcDbLine
 10
30.250377435121706
 20
20.746402948321368
 30
0.0
 11
32.23809503121781
 21
20.5099220767601
 31
0.0
  0
LINE
  5
AD
330
17
100
AcDbEntity
  8
0
100
AcDbLine
 10
32.23809503121781
 20
20.5099220767601
 30
0.0
 11
34.41116249961869
 21
20.5099220767601
 31
0.0
  0
LINE
  5
AE
330
17
100
AcDbEntity
  8
0
100
AcDbLine
 10
34.41116249961869
 20
20.5099220767601
 30
0.0
 11
36.25826984775944
 21
20.618575450180145
 31
0.0
  0
LINE
  5
AF
330
17
100
AcDbEntity
  8
0
100
AcDbLine
 10
36.25826984775944
 20
20.618575450180145
 30
0.0
 11
36.609795467647814
 21
20.842273571927286
 31
0.0
  0
LINE
  5
B0
330
17
100
AcDbEntity
  8
0
100
AcDbLine
 10
36.609795467647814
 20
20.842273571927286
 30
0.0
 11
36.59701271783369
 21
23.935699026945016
 31
0.0
  0
LINE
  5
B1
330
17
100
AcDbEntity
  8
0
100
AcDbLine
 10
36.59701271783369
 20
23.935699026945016
 30
0.0
 11
36.539490343670145
 21
24.274441897019273
 31
0.0
  0
LINE
  5
B2
330
17
100
AcDbEntity
  8
0
100
AcDbLine
 10
36.539490343670145
 20
24.274441897019273
 30
0.0
 11
36.07291997545466
 21
24.728229515420637
 31
0.0
  0
LINE
  5
B3
330
17
100
AcDbEntity
  8
0
100
AcDbLine
 10
36.07291997545466
 20
24.728229515420637
 30
0.0
 11
31.06208204831851
 21
24.77936051467713
 31
0.0
  0
LINE
  5
B4
330
17
100
AcDbEntity
  8
0
100
AcDbLine
 10
31.06208204831851
 20
24.77936051467713
 30
0.0
 11
30.205637810772274
 21
24.510922768580542
 31
0.0
  0
LINE
  5
B5
330
17
100
AcDbEntity
  8
0
100
AcDbLine
 10
30.205637810772274
 20
24.510922768580542
 30
0.0
 11
30.013896563560436
 21
24.191354023227476
 31
0.0
  0
LINE
  5
B6
330
17
100
AcDbEntity
  8
0
100
AcDbLine
 10
22.727729169510418
 20
20.740011573414307
 30
0.0
 11
22.670206795346864
 21
18.905686975087676
 31
0.0
  0
LINE
  5
B7
330
17
100
AcDbEntity
  8
0
100
AcDbLine
 10
22.670206795346864
 20
18.905686975087676
 30
0.0
 11
23.040906539956424
 21
18.29211498400978
 31
0.0
  0
LINE
  5
B8
330
17
100
AcDbEntity
  8
0
100
AcDbLine
 10
23.040906539956424
 20
18.29211498400978
 30
0.0
 11
24.363921145718137
 21
18.106765111705002
 31
0.0
  0
LINE
  5
B9
330
17
100
AcDbEntity
  8
0
100
AcDbLine
 10
24.363921145718137
 20
18.106765111705002
 30
0.0
 11
28.128440965977312
 21
18.151504736054427
 31
0.0
  0
LINE
  5
BA
330
17
100
AcDbEntity
  8
0
100
AcDbLine
 10
28.128440965977312
 20
18.151504736054427
 30
0.0
 11
28.569445834564554
 21
18.45189935668632
 31
0.0
  0
LINE
  5
BB
330
17
100
AcDbEntity
  8
0
100
AcDbLine
 10
28.569445834564554
 20
18.45189935668632
 30
0.0
 11
28.729230207241088
 21
20.52909620148128
 31
0.0
  0
LINE
  5
BC
330
17
100
AcDbEntity
  8
0
100
AcDbLine
 10
28.729230207241088
 20
20.52909620148128
 30
0.0
 11
28.205137464862055
 21
21.321626689956894
 31
0.0
  0
LINE
  5
BD
330
17
100
AcDbEntity
  8
0
100
AcDbLine
 10
28.205137464862055
 20
21.321626689956894
 30
0.0
 11
23.443563159101288
 21
21.353583564492205
 31
0.0
  0
LINE
  5
BE
330
17
100
AcDbEntity
  8
0
100
AcDbLine
 10
23.443563159101288
 20
21.353583564492205
 30
0.0
 11
22.727729169510418
 21
20.740011573414307
 31
0.0
  0
LINE
  5
BF
330
17
100
AcDbEntity
  8
0
100
AcDbLine
 10
39.473131426011335
 20
11.344690460034016
 30
0.0
 11
39.569002049617254
 21
10.417941098510113
 31
0.0
  0
LINE
  5
C0
330
17
100
AcDbEntity
  8
0
100
AcDbLine
 10
39.569002049617254
 20
10.417941098510113
 30
0.0
 11
40.118660291624536
 21
9.957762105201695
 31
0.0
  0
LINE
  5
C1
330
17
100
AcDbEntity
  8
0
100
AcDbLine
 10
40.118660291624536
 20
9.957762105201695
 30
0.0
 11
41.69732989366871
 21
9.836325981967526
 31
0.0
  0
LINE
  5
C2
330
17
100
AcDbEntity
  8
0
100
AcDbLine
 10
41.69732989366871
 20
9.836325981967526
 30
0.0
 11
42.413163883259585
 21
10.449897973045424
 31
0.0
  0
LINE
  5
C3
330
17
100
AcDbEntity
  8
0
100
AcDbLine
 10
42.413163883259585
 20
10.449897973045424
 30
0.0
 11
42.406772508352525
 21
11.453343833454063
 31
0.0
  0
LINE
  5
C4
330
17
100
AcDbEntity
  8
0
100
AcDbLine
 10
42.406772508352525
 20
11.453343833454063
 30
0.0
 11
41.95298488995117
 21
12.073307199439022
 31
0.0
  0
LINE
  5
C5
330
17
100
AcDbEntity
  8
0
100
AcDbLine
 10
41.95298488995117
 20
12.073307199439022
 30
0.0
 11
41.39054389812976
 21
12.367310445163845
 31
0.0
  0
LINE
  5
C6
330
17
100
AcDbEntity
  8
0
100
AcDbLine
 10
41.39054389812976
 20
12.367310445163845
 30
0.0
 11
40.72584090779537
 21
12.418441444420338
 31
0.0
  0
LINE
  5
C7
330
17
100
AcDbEntity
  8
0
100
AcDbLine
 10
40.72584090779537
 20
12.418441444420338
 30
0.0
 11
40.125051666531604
 21
12.213917447394373
 31
0.0
  0
LINE
  5
C8
330
17
100
AcDbEntity
  8
0
100
AcDbLine
 10
40.125051666531604
 20
12.213917447394373
 30
0.0
 11
39.863005295342084
 21
12.06691582453196
 31
0.0
  0
LINE
  5
C9
330
17
100
AcDbEntity
  8
0
100
AcDbLine
 10
39.863005295342084
 20
12.06691582453196
 30
0.0
 11
39.473131426011335
 21
11.344690460034016
 31
0.0
  0
LINE
  5
CA
330
17
100
AcDbEntity
  8
0
100
AcDbLine
 10
15.658868522300482
 20
13.594454427319633
 30
0.0
 11
15.524649649252192
 21
9.676541609290986
 31
0.0
  0
LINE
  5
CB
330
17
100
AcDbEntity
  8
0
100
AcDbLine
 10
15.524649649252192
 20
9.676541609290986
 30
0.0
 11
15.946480393118245
 21
8.641138874347035
 31
0.0
  0
LINE
  5
CC
330
17
100
AcDbEntity
  8
0
100
AcDbLine
 10
15.946480393118245
 20
8.641138874347035
 30
0.0
 11
18.681988853340535
 21
8.347135628622212
 31
0.0
  0
LINE
  5
CD
330
17
100
AcDbEntity
  8
0
100
AcDbLine
 10
18.681988853340535
 20
8.347135628622212
 30
0.0
 11
22.625467170997425
 21
8.545268250741117
 31
0.0
  0
LINE
  5
CE
330
17
100
AcDbEntity
  8
0
100
AcDbLine
 10
22.625467170997425
 20
8.545268250741117
 30
0.0
 11
22.976992790885802
 21
8.768966372488265
 31
0.0
  0
LINE
  5
CF
330
17
100
AcDbEntity
  8
0
100
AcDbLine
 10
22.976992790885802
 20
8.768966372488265
 30
0.0
 11
23.09842891411997
 21
12.520703442933318
 31
0.0
  0
LINE
  5
D0
330
17
100
AcDbEntity
  8
0
100
AcDbLine
 10
23.09842891411997
 20
12.520703442933318
 30
0.0
 11
23.015341040328174
 21
13.613628552040822
 31
0.0
  0
LINE
  5
D1
330
17
100
AcDbEntity
  8
0
100
AcDbLine
 10
23.015341040328174
 20
13.613628552040822
 30
0.0
 11
22.798034293488087
 21
14.048242045720997
 31
0.0
  0
LINE
  5
D2
330
17
100
AcDbEntity
  8
0
100
AcDbLine
 10
22.798034293488087
 20
14.048242045720997
 30
0.0
 11
22.139722678060757
 21
14.182460918769287
 31
0.0
  0
LINE
  5
D3
330
17
100
AcDbEntity
  8
0
100
AcDbLine
 10
22.139722678060757
 20
14.182460918769287
 30
0.0
 11
16.873229754642153
 21
14.169678168955166
 31
0.0
  0
LINE
  5
D4
330
17
100
AcDbEntity
  8
0
100
AcDbLine
 10
16.873229754642153
 20
14.169678168955166
 30
0.0
 11
15.850609769512326
 21
13.914023172672707
 31
0.0
  0
LINE
  5
D5
330
17
100
AcDbEntity
  8
0
100
AcDbLine
 10
15.850609769512326
 20
13.914023172672707
 30
0.0
 11
15.658868522300482
 21
13.594454427319633
 31
0.0
  0
LINE
  5
D6
330
17
100
AcDbEntity
  8
0
100
AcDbLine
 10
9.48480036207915
 20
11.561997206874103
 30
0.0
 11
9.574279610778008
 21
10.552159971558396
 31
0.0
  0
LINE
  5
D7
330
17
100
AcDbEntity
  8
0
100
AcDbLine
 10
9.574279610778008
 20
10.552159971558396
 30
0.0
 11
10.207025726577095
 21
10.085589603342918
 31
0.0
  0
LINE
  5
D8
330
17
100
AcDbEntity
  8
0
100
AcDbLine
 10
10.207025726577095
 20
10.085589603342918
 30
0.0
 11
11.875174577320122
 21
10.040849978993485
 31
0.0
  0
LINE
  5
D9
330
17
100
AcDbEntity
  8
0
100
AcDbLine
 10
11.875174577320122
 20
10.040849978993485
 30
0.0
 11
12.424832819327404
 21
10.667204719885511
 31
0.0
  0
LINE
  5
DA
330
17
100
AcDbEntity
  8
0
100
AcDbLine
 10
12.424832819327404
 20
10.667204719885511
 30
0.0
 11
12.341744945535607
 21
11.760129828993009
 31
0.0
  0
LINE
  5
DB
330
17
100
AcDbEntity
  8
0
100
AcDbLine
 10
12.341744945535607
 20
11.760129828993009
 30
0.0
 11
11.478909333082315
 21
12.495137943305075
 31
0.0
  0
LINE
  5
DC
330
17
100
AcDbEntity
  8
0
100
AcDbLine
 10
11.478909333082315
 20
12.495137943305075
 30
0.0
 11
10.64803059516433
 21
12.55905169237569
 31
0.0
  0
LINE
  5
DD
330
17
100
AcDbEntity
  8
0
100
AcDbLine
 10
10.64803059516433
 20
12.55905169237569
 30
0.0
 11
10.047241353900555
 21
12.354527695349724
 31
0.0
  0
LINE
  5
DE
330
17
100
AcDbEntity
  8
0
100
AcDbLine
 10
10.047241353900555
 20
12.354527695349724
 30
0.0
 11
9.48480036207915
 21
11.561997206874103
 31
0.0
  0
LINE
  5
DF
330
17
100
AcDbEntity
  8
0
100
AcDbLine
 10
46.99577969162263
 20
3.745345695537992
 30
0.0
 11
47.09804169013561
 21
2.9016842078058858
 31
0.0
  0
LINE
  5
E0
330
17
100
AcDbEntity
  8
0
100
AcDbLine
 10
47.09804169013561
 20
2.9016842078058858
 30
0.0
 11
47.6476999321429
 21
2.441505214497454
 31
0.0
  0
LINE
  5
E1
330
17
100
AcDbEntity
  8
0
100
AcDbLine
 10
47.6476999321429
 20
2.441505214497454
 30
0.0
 11
49.47563315556246
 21
2.300894966542103
 31
0.0
  0
LINE
  5
E2
330
17
100
AcDbEntity
  8
0
100
AcDbLine
 10
49.47563315556246
 20
2.300894966542103
 30
0.0
 11
50.018900022662685
 21
2.8441618336423318
 31
0.0
  0
LINE
  5
E3
330
17
100
AcDbEntity
  8
0
100
AcDbLine
 10
50.018900022662685
 20
2.8441618336423318
 30
0.0
 11
50.01890002266267
 21
3.9306955678427755
 31
0.0
  0
LINE
  5
E4
330
17
100
AcDbEntity
  8
0
100
AcDbLine
 10
50.01890002266267
 20
3.9306955678427755
 30
0.0
 11
49.565112404261306
 21
4.550658933827734
 31
0.0
  0
LINE
  5
E5
330
17
100
AcDbEntity
  8
0
100
AcDbLine
 10
49.565112404261306
 20
4.550658933827734
 30
0.0
 11
49.085759286231706
 21
4.838270804645489
 31
0.0
  0
LINE
  5
E6
330
17
100
AcDbEntity
  8
0
100
AcDbLine
 10
49.085759286231706
 20
4.838270804645489
 30
0.0
 11
48.171792674521924
 21
4.908575928623165
 31
0.0
  0
LINE
  5
E7
330
17
100
AcDbEntity
  8
0
100
AcDbLine
 10
48.171792674521924
 20
4.908575928623165
 30
0.0
 11
47.4815241845593
 21
4.627355432712463
 31
0.0
  0
LINE
  5
E8
330
17
100
AcDbEntity
  8
0
100
AcDbLine
 10
47.4815241845593
 20
4.627355432712463
 30
0.0
 11
46.99577969162263
 21
3.745345695537992
 31
0.0
  0
LINE
  5
E9
330
17
100
AcDbEntity
  8
0
100
AcDbLine
 10
1.7895849739772043
 20
3.879564568586275
 30
0.0
 11
1.981326221189045
 21
3.1125995797389123
 31
0.0
  0
LINE
  5
EA
330
17
100
AcDbEntity
  8
0
100
AcDbLine
 10
1.981326221189045
 20
3.1125995797389123
 30
0.0
 11
2.6204637118951855
 21
2.7291170853152096
 31
0.0
  0
LINE
  5
EB
330
17
100
AcDbEntity
  8
0
100
AcDbLine
 10
2.6204637118951855
 20
2.7291170853152096
 30
0.0
 11
4.288612562638217
 21
2.6843774609657913
 31
0.0
  0
LINE
  5
EC
330
17
100
AcDbEntity
  8
0
100
AcDbLine
 10
4.288612562638217
 20
2.6843774609657913
 30
0.0
 11
4.8318794297384375
 21
3.227644328066006
 31
0.0
  0
LINE
  5
ED
330
17
100
AcDbEntity
  8
0
100
AcDbLine
 10
4.8318794297384375
 20
3.227644328066006
 30
0.0
 11
4.883010428994927
 21
3.8923473184003967
 31
0.0
  0
LINE
  5
EE
330
17
100
AcDbEntity
  8
0
100
AcDbLine
 10
4.883010428994927
 20
3.8923473184003967
 30
0.0
 11
4.678486431968963
 21
4.49313655966418
 31
0.0
  0
LINE
  5
EF
330
17
100
AcDbEntity
  8
0
100
AcDbLine
 10
4.678486431968963
 20
4.49313655966418
 30
0.0
 11
3.7325629457238723
 21
5.2345360488832995
 31
0.0
  0
LINE
  5
F0
330
17
100
AcDbEntity
  8
0
100
AcDbLine
 10
3.7325629457238723
 20
5.2345360488832995
 30
0.0
 11
3.150947829181286
 21
5.279275673232732
 31
0.0
  0
LINE
  5
F1
330
17
100
AcDbEntity
  8
0
100
AcDbLine
 10
3.150947829181286
 20
5.279275673232732
 30
0.0
 11
2.4606793392186486
 21
4.99805517732203
 31
0.0
  0
LINE
  5
F2
330
17
100
AcDbEntity
  8
0
100
AcDbLine
 10
2.4606793392186486
 20
4.99805517732203
 30
0.0
 11
1.7895849739772043
 21
3.879564568586275
 31
0.0
  0
ENDSEC
  0
SECTION
  2
OBJECTS
  0
DICTIONARY
  5
A
330
0
100
AcDbDictionary
281
1
  3
ACAD_COLOR
350
B
  3
ACAD_GROUP
350
C
  3
ACAD_LAYOUT
350
D
  3
ACAD_MATERIAL
350
E
  3
ACAD_MLEADERSTYLE
350
F
  3
ACAD_MLINESTYLE
350
10
  3
ACAD_PLOTSETTINGS
350
11
  3
ACAD_PLOTSTYLENAME
350
12
  3
ACAD_SCALELIST
350
14
  3
ACAD_TABLESTYLE
350
15
  3
ACAD_VISUALSTYLE
350
16
  3
EZDXF_META
350
2D
  0
DICTIONARY
  5
B
330
A
100
AcDbDictionary
281
1
  0
DICTIONARY
  5
C
330
A
100
AcDbDictionary
281
1
  0
DICTIONARY
  5
D
330
A
100
AcDbDictionary
281
1
  3
Model
350
1A
  3
Layout1
350
1E
  0
DICTIONARY
  5
E
330
A
100
AcDbDictionary
281
1
  3
ByBlock
350
1F
  3
ByLayer
350
20
  3
Global
350
21
  0
DICTIONARY
  5
F
330
A
100
AcDbDictionary
281
1
  3
Standard
350
2C
  0
DICTIONARY
  5
10
330
A
100
AcDbDictionary
281
1
  3
Standard
350
22
  0
DICTIONARY
  5
11
330
A
100
AcDbDictionary
281
1
  0
ACDBDICTIONARYWDFLT
  5
12
330
A
100
AcDbDictionary
281
1
  3
Normal
350
13
100
AcDbDictionaryWithDefault
340
13
  0
ACDBPLACEHOLDER
  5
13
330
12
  0
DICTIONARY
  5
14
330
A
100
AcDbDictionary
281
1
  0
DICTIONARY
  5
15
330
A
100
AcDbDictionary
281
1
  0
DICTIONARY
  5
16
330
A
100
AcDbDictionary
281
1
  0
LAYOUT
  5
1A
330
D
100
AcDbPlotSettings
  1

  2
Adobe PDF
  4
A3
  6

 40
7.5
 41
20.0
 42
7.5
 43
20.0
 44
420.0
 45
297.0
 46
0.0
 47
0.0
 48
0.0
 49
0.0
140
0.0
141
0.0
142
1.0
143
1.0
 70
1024
 72
1
 73
1
 74
5
  7

 75
16
 76
0
 77
2
 78
300
147
1.0
148
0.0
149
0.0
100
AcDbLayout
  1
Model
 70
1
 71
0
 10
0.0
 20
0.0
 11
420.0
 21
297.0
 12
0.0
 22
0.0
 32
0.0
 14
1e+20
 24
1e+20
 34
1e+20
 15
-1e+20
 25
-1e+20
 35
-1e+20
146
0.0
 13
0.0
 23
0.0
 33
0.0
 16
1.0
 26
0.0
 36
0.0
 17
0.0
 27
1.0
 37
0.0
 76
1
330
17
  0
LAYOUT
  5
1E
330
D
100
AcDbPlotSettings
  1

  2
Adobe PDF
  4
A3
  6

 40
7.5
 41
20.0
 42
7.5
 43
20.0
 44
420.0
 45
297.0
 46
0.0
 47
0.0
 48
0.0
 49
0.0
140
0.0
141
0.0
142
1.0
143
1.0
 70
0
 72
1
 73
1
 74
5
  7

 75
16
 76
0
 77
2
 78
300
147
1.0
148
0.0
149
0.0
100
AcDbLayout
  1
Layout1
 70
1
 71
1
 10
0.0
 20
0.0
 11
420.0
 21
297.0
 12
0.0
 22
0.0
 32
0.0
 14
1e+20
 24
1e+20
 34
1e+20
 15
-1e+20
 25
-1e+20
 35
-1e+20
146
0.0
 13
0.0
 23
0.0
 33
0.0
 16
1.0
 26
0.0
 36
0.0
 17
0.0
 27
1.0
 37
0.0
 76
1
330
1B
  0
MATERIAL
  5
1F
102
{ACAD_REACTORS
330
E
102
}
330
E
100
AcDbMaterial
  1
ByBlock
  2

 70
0
 40
1.0
 71
1
 41
1.0
 91
-1023410177
 42
1.0
 72
1
  3

 73
1
 74
1
 75
1
 44
0.5
 73
0
 45
1.0
 46
1.0
 77
1
  4

 78
1
 79
1
170
1
 48
1.0
171
1
  6

172
1
173
1
174
1
140
1.0
141
1.0
175
1
  7

176
1
177
1
178
1
143
1.0
179
1
  8

270
1
271
1
272
1
145
1.0
146
1.0
273
1
  9

274
1
275
1
276
1
 42
1.0
 72
1
  3

 73
1
 74
1
 75
1
 94
63
  0
MATERIAL
  5
20
102
{ACAD_REACTORS
330
E
102
}
330
E
100
AcDbMaterial
  1
ByLayer
  2

 70
0
 40
1.0
 71
1
 41
1.0
 91
-1023410177
 42
1.0
 72
1
  3

 73
1
 74
1
 75
1
 44
0.5
 73
0
 45
1.0
 46
1.0
 77
1
  4

 78
1
 79
1
170
1
 48
1.0
171
1
  6

172
1
173
1
174
1
140
1.0
141
1.0
175
1
  7

176
1
177
1
178
1
143
1.0
179
1
  8

270
1
271
1
272
1
145
1.0
146
1.0
273
1
  9

274
1
275
1
276
1
 42
1.0
 72
1
  3

 73
1
 74
1
 75
1
 94
63
  0
MATERIAL
  5
21
102
{ACAD_REACTORS
330
E
102
}
330
E
100
AcDbMaterial
  1
Global
  2

 70
0
 40
1.0
 71
1
 41
1.0
 91
-1023410177
 42
1.0
 72
1
  3

 73
1
 74
1
 75
1
 44
0.5
 73
0
 45
1.0
 46
1.0
 77
1
  4

 78
1
 79
1
170
1
 48
1.0
171
1
  6

172
1
173
1
174
1
140
1.0
141
1.0
175
1
  7

176
1
177
1
178
1
143
1.0
179
1
  8

270
1
271
1
272
1
145
1.0
146
1.0
273
1
  9

274
1
275
1
276
1
 42
1.0
 72
1
  3

 73
1
 74
1
 75
1
 94
63
  0
MLINESTYLE
  5
22
102
{ACAD_REACTORS
330
10
102
}
330
10
100
AcDbMlineStyle
  2
Standard
 70
0
  3

 62
256
 51
90.0
 52
90.0
 71
2
 49
0.5
 62
256
  6
BYLAYER
 49
-0.5
 62
256
  6
BYLAYER
  0
MLEADERSTYLE
  5
2C
102
{ACAD_REACTORS
330
F
102
}
330
F
100
AcDbMLeaderStyle
179
2
170
2
171
1
172
0
 90
2
 40
0.0
 41
0.0
173
1
 91
-1056964608
 92
-2
290
1
 42
2.0
291
1
 43
8.0
  3
Standard
 44
4.0
300

342
29
174
1
175
1
176
0
178
1
 93
-1056964608
 45
4.0
292
0
297
0
 46
4.0
 94
-1056964608
 47
1.0
 49
1.0
140
1.0
294
1
141
0.0
177
0
142
1.0
295
0
296
0
143
3.75
271
0
272
9
273
9
  0
DICTIONARY
  5
2D
330
A
100
AcDbDictionary
280
1
281
1
  3
CREATED_BY_EZDXF
350
2E
  3
WRITTEN_BY_EZDXF
350
F5
  0
DICTIONARYVAR
  5
2E
330
2D
100
DictionaryVariables
280
0
  1
0.17.2 @ 2022-08-17T20:46:55.549652+00:00
  0
DICTIONARYVAR
  5
F5
330
2D
100
DictionaryVariables
280
0
  1
0.17.2 @ 2022-08-17T20:46:55.556633+00:00
  0
ENDSEC
  0
EOF
